<svg width="48" height="42" viewBox="0 0 48 42" fill="none" xmlns="http://www.w3.org/2000/svg">
<path d="M0 0H48V40.8195C48 41.4375 47.4451 41.9075 46.8356 41.8059L24.1644 38.0274C24.0555 38.0093 23.9445 38.0093 23.8356 38.0274L1.1644 41.8059C0.554866 41.9075 0 41.4375 0 40.8195V0Z" fill="#007AFF"/>
<path opacity="0.9" d="M16.716 17.256C15.54 17.712 14.22 17.964 12.744 17.988V23.172C12.696 24.96 12.324 26.352 11.64 27.36L12.444 28.224C13.32 26.964 13.788 25.284 13.848 23.172V21.96H15.288V28.248H16.404V21.96H17.556V20.868H13.848V18.924C15.096 18.84 16.236 18.624 17.268 18.264L16.716 17.256ZM6.696 18.108V19.164H12.18V18.108H9.96C9.816 17.712 9.66 17.352 9.516 17.028L8.34 17.22C8.52 17.496 8.688 17.796 8.832 18.108H6.696ZM6.576 20.832V21.876H8.904V22.956H6.768V23.988H8.904V26.94C8.904 27.18 8.76 27.3 8.472 27.3C8.316 27.3 8.148 27.276 7.968 27.228L8.22 28.284H8.844C9.636 28.284 10.032 27.924 10.032 27.204V23.988H12.048V22.956H10.032V21.876H12.252V20.832H11.028C11.208 20.472 11.376 20.076 11.52 19.632L10.5 19.272C10.356 19.812 10.188 20.328 9.996 20.832H8.856C8.688 20.232 8.496 19.716 8.304 19.284L7.308 19.656C7.512 20.016 7.692 20.412 7.848 20.832H6.576ZM7.488 24.516C7.272 25.5 6.9 26.436 6.372 27.3L7.308 27.9C7.836 27 8.232 25.944 8.52 24.732L7.488 24.516ZM11.244 24.432L10.308 24.684C10.596 25.404 10.836 26.136 11.028 26.88L11.988 26.52C11.808 25.896 11.556 25.2 11.244 24.432ZM20.22 19.5V24.972C19.632 25.104 19.044 25.224 18.444 25.32L18.732 26.472C20.292 26.136 21.756 25.716 23.136 25.224V24.084C22.548 24.3 21.96 24.492 21.36 24.672V19.5H22.992V18.408H18.588V19.5H20.22ZM25.032 17.196V19.524H23.22V20.628H25.032V20.664C25.008 23.808 24.144 26.088 22.44 27.504L23.376 28.332C25.2 26.7 26.136 24.144 26.184 20.664V20.628H28.08C28.056 23.82 28.02 25.692 27.948 26.256C27.84 26.796 27.444 27.072 26.748 27.072C26.412 27.072 26.004 27.048 25.524 27.012L25.8 28.08C26.34 28.116 26.724 28.14 26.94 28.14C28.164 28.14 28.86 27.684 29.016 26.784C29.136 25.86 29.196 23.436 29.196 19.524H26.184V17.196H25.032ZM32.304 24.192H34.776V25.068H32.304V24.192ZM34.776 23.256H32.304V22.332H34.776V23.256ZM32.304 26.016H34.776V26.688C34.776 27 34.632 27.156 34.356 27.156L33.504 27.108L33.78 28.176H34.716C35.484 28.176 35.88 27.756 35.88 26.928V21.336H31.2V28.26H32.304V26.016ZM39.972 22.476C40.404 22.476 40.728 22.38 40.944 22.2C41.16 21.996 41.328 21.396 41.424 20.4L40.356 20.052C40.332 20.724 40.26 21.132 40.164 21.276C40.08 21.396 39.948 21.456 39.756 21.456H38.328C38.04 21.456 37.896 21.252 37.896 20.868V19.668C39.18 19.476 40.308 19.26 41.292 19.032L40.92 18.024C40.14 18.24 39.132 18.432 37.896 18.624V17.208H36.768V21.108C36.768 22.02 37.176 22.476 38.016 22.476H39.972ZM37.896 25.248C39.096 25.128 40.236 24.936 41.292 24.648L40.92 23.628C40.032 23.892 39.024 24.096 37.896 24.216V22.896H36.768V26.964C36.768 27.684 37.176 28.056 37.992 28.056H39.984C40.428 28.056 40.752 27.96 40.956 27.78C41.172 27.588 41.328 26.988 41.424 25.98L40.392 25.644C40.356 26.316 40.284 26.724 40.188 26.868C40.104 26.976 39.96 27.036 39.768 27.036H38.316C38.028 27.036 37.896 26.928 37.896 26.712V25.248ZM35.016 18L34.14 18.552C34.38 18.9 34.608 19.236 34.824 19.572C33.852 19.692 32.94 19.788 32.1 19.836C32.724 19.236 33.288 18.456 33.792 17.472L32.7 17.148C32.316 17.964 31.752 18.78 31.02 19.596C30.876 19.716 30.708 19.812 30.504 19.884L30.816 20.832C32.568 20.736 34.068 20.592 35.316 20.4C35.46 20.652 35.592 20.904 35.712 21.144L36.648 20.472C36.264 19.776 35.724 18.948 35.016 18Z" fill="white"/>
</svg>
