<svg width="84" height="84" viewBox="0 0 84 84" fill="none" xmlns="http://www.w3.org/2000/svg">
<g clip-path="url(#clip0)">
<g filter="url(#filter0_i)">
<path fill-rule="evenodd" clip-rule="evenodd" d="M44.45 5.15648C42.9923 4.31484 41.2092 4.28247 39.7265 5.05936L39.55 5.15648L11.577 21.3067C10.115 22.1508 9.19441 23.6851 9.13051 25.3632L9.12695 25.5503L9.12695 57.8508C9.12695 59.5389 9.99537 61.1033 11.4168 61.9977L11.577 62.0943L39.55 78.2446C41.0078 79.0862 42.7908 79.1186 44.2736 78.3417L44.45 78.2446L72.4231 62.0943C73.885 61.2503 74.8056 59.716 74.8695 58.0378L74.8731 57.8508V25.5503C74.8731 23.8622 74.0047 22.2977 72.5833 21.4033L72.4231 21.3067L44.45 5.15648Z" fill="url(#paint0_linear)"/>
<path fill-rule="evenodd" clip-rule="evenodd" d="M44.45 5.15648C42.9923 4.31484 41.2092 4.28247 39.7265 5.05936L39.55 5.15648L11.577 21.3067C10.115 22.1508 9.19441 23.6851 9.13051 25.3632L9.12695 25.5503L9.12695 57.8508C9.12695 59.5389 9.99537 61.1033 11.4168 61.9977L11.577 62.0943L39.55 78.2446C41.0078 79.0862 42.7908 79.1186 44.2736 78.3417L44.45 78.2446L72.4231 62.0943C73.885 61.2503 74.8056 59.716 74.8695 58.0378L74.8731 57.8508V25.5503C74.8731 23.8622 74.0047 22.2977 72.5833 21.4033L72.4231 21.3067L44.45 5.15648Z" fill="url(#paint1_linear)"/>
</g>
<path fill-rule="evenodd" clip-rule="evenodd" d="M74.1731 18.2756L46.2 2.12539C43.6011 0.624871 40.399 0.624871 37.8 2.12539L9.82695 18.2756C7.22798 19.7762 5.62695 22.5492 5.62695 25.5503V57.8508C5.62695 60.8518 7.22798 63.6249 9.82695 65.1254L37.8 81.2757C40.399 82.7762 43.6011 82.7762 46.2 81.2757L74.1731 65.1254C76.7721 63.6249 78.3731 60.8518 78.3731 57.8508V25.5503C78.3731 22.5492 76.7721 19.7762 74.1731 18.2756ZM39.7265 5.05936C41.2092 4.28247 42.9923 4.31484 44.45 5.15648L72.4231 21.3067L72.5833 21.4033C74.0047 22.2977 74.8731 23.8622 74.8731 25.5503V57.8508L74.8695 58.0378C74.8056 59.716 73.885 61.2503 72.4231 62.0943L44.45 78.2446L44.2736 78.3417C42.7908 79.1186 41.0078 79.0862 39.55 78.2446L11.577 62.0943L11.4168 61.9977C9.99537 61.1033 9.12695 59.5389 9.12695 57.8508V25.5503L9.13051 25.3632C9.19441 23.6851 10.115 22.1508 11.577 21.3067L39.55 5.15648L39.7265 5.05936Z" fill="url(#paint2_linear)"/>
<g filter="url(#filter1_dd)">
<path fill-rule="evenodd" clip-rule="evenodd" d="M33.2732 28.6255C32.8722 28.748 32.4466 28.8139 32.0055 28.8139C31.5751 28.8139 31.1594 28.7512 30.767 28.6343L24.8709 38.8467C25.6001 39.6222 26.0468 40.6664 26.0468 41.8148C26.0468 43.0091 25.5637 44.0905 24.7823 44.8744L30.7797 55.2622C31.1684 55.1478 31.5798 55.0864 32.0055 55.0864C32.4388 55.0864 32.8572 55.1499 33.2519 55.2683L40.9537 41.9285L33.2732 28.6255ZM35.1211 27.4925L42.2047 39.7617L49.2569 27.5468C48.685 26.9757 48.2718 26.2456 48.0895 25.4285H36.2351C36.0584 26.2199 35.6653 26.9298 35.1211 27.4925ZM28.9115 27.5146C28.1447 26.7329 27.6719 25.6618 27.6719 24.4803C27.6719 22.0869 29.6121 20.1467 32.0055 20.1467C33.9758 20.1467 35.6389 21.4616 36.1654 23.2617H48.1591C48.6856 21.4616 50.3487 20.1467 52.319 20.1467C54.7124 20.1467 56.6526 22.0869 56.6526 24.4803C56.6526 25.6702 56.173 26.7481 55.3966 27.5312L61.225 37.6262C61.581 37.5316 61.9549 37.4812 62.3407 37.4812C64.7341 37.4812 66.6743 39.4215 66.6743 41.8148C66.6743 44.2082 64.7341 46.1484 62.3407 46.1484C61.9993 46.1484 61.6671 46.109 61.3485 46.0343L55.3872 56.3596C56.1692 57.1435 56.6526 58.2253 56.6526 59.42C56.6526 61.8133 54.7124 63.7535 52.319 63.7535C50.3394 63.7535 48.6698 62.4261 48.1517 60.6129H36.1728C35.6548 62.4261 33.9852 63.7535 32.0055 63.7535C29.6121 63.7535 27.6719 61.8133 27.6719 59.42C27.6719 58.2337 28.1486 57.1587 28.9208 56.3761L22.9179 45.9788C22.5355 46.0892 22.1313 46.1484 21.7132 46.1484C19.3199 46.1484 17.3796 44.2082 17.3796 41.8148C17.3796 39.4215 19.3199 37.4812 21.7132 37.4812C22.1753 37.4812 22.6205 37.5536 23.0381 37.6875L28.9115 27.5146ZM36.2292 58.4461H48.0953C48.2823 57.6318 48.6987 56.9051 49.2728 56.3377L42.2047 44.0953L35.1054 56.3916C35.6518 56.9509 36.0481 57.6574 36.2292 58.4461ZM53.5226 55.2557C53.1404 55.1454 52.7366 55.0864 52.319 55.0864C51.9122 55.0864 51.5185 55.1424 51.1452 55.2472L43.4557 41.9285L51.1238 28.647C51.5034 28.7557 51.9044 28.8139 52.319 28.8139C52.7413 28.8139 53.1494 28.7535 53.5353 28.6409L59.3375 38.6906C58.5174 39.4791 58.0071 40.5874 58.0071 41.8148C58.0071 43.0875 58.5557 44.232 59.4293 45.0249L53.5226 55.2557Z" fill="url(#paint3_linear)"/>
</g>
</g>
<defs>
<filter id="filter0_i" x="9.12695" y="4.5" width="65.7461" height="75.401" filterUnits="userSpaceOnUse" color-interpolation-filters="sRGB">
<feFlood flood-opacity="0" result="BackgroundImageFix"/>
<feBlend mode="normal" in="SourceGraphic" in2="BackgroundImageFix" result="shape"/>
<feColorMatrix in="SourceAlpha" type="matrix" values="0 0 0 0 0 0 0 0 0 0 0 0 0 0 0 0 0 0 127 0" result="hardAlpha"/>
<feOffset dy="1"/>
<feGaussianBlur stdDeviation="1"/>
<feComposite in2="hardAlpha" operator="arithmetic" k2="-1" k3="1"/>
<feColorMatrix type="matrix" values="0 0 0 0 0.63206 0 0 0 0 0.679603 0 0 0 0 0.61093 0 0 0 0.870028 0"/>
<feBlend mode="normal" in2="shape" result="effect1_innerShadow"/>
</filter>
<filter id="filter1_dd" x="15.2128" y="17.9799" width="53.6282" height="49.0238" filterUnits="userSpaceOnUse" color-interpolation-filters="sRGB">
<feFlood flood-opacity="0" result="BackgroundImageFix"/>
<feColorMatrix in="SourceAlpha" type="matrix" values="0 0 0 0 0 0 0 0 0 0 0 0 0 0 0 0 0 0 127 0"/>
<feOffset dx="-1.0834" dy="-1.0834"/>
<feGaussianBlur stdDeviation="0.541699"/>
<feColorMatrix type="matrix" values="0 0 0 0 1 0 0 0 0 1 0 0 0 0 1 0 0 0 0.3 0"/>
<feBlend mode="normal" in2="BackgroundImageFix" result="effect1_dropShadow"/>
<feColorMatrix in="SourceAlpha" type="matrix" values="0 0 0 0 0 0 0 0 0 0 0 0 0 0 0 0 0 0 127 0"/>
<feOffset dy="1.0834"/>
<feGaussianBlur stdDeviation="1.0834"/>
<feColorMatrix type="matrix" values="0 0 0 0 0 0 0 0 0 0 0 0 0 0 0 0 0 0 0.25 0"/>
<feBlend mode="normal" in2="effect1_dropShadow" result="effect2_dropShadow"/>
<feBlend mode="normal" in="SourceGraphic" in2="effect2_dropShadow" result="shape"/>
</filter>
<linearGradient id="paint0_linear" x1="42" y1="4.5" x2="42" y2="78.901" gradientUnits="userSpaceOnUse">
<stop stop-color="white"/>
<stop offset="1" stop-color="white" stop-opacity="0"/>
</linearGradient>
<linearGradient id="paint1_linear" x1="51.3671" y1="13.7001" x2="17.4633" y2="61.9327" gradientUnits="userSpaceOnUse">
<stop stop-color="#37383F"/>
<stop offset="0.315575" stop-color="#62636F"/>
<stop offset="0.650421" stop-color="#28292F"/>
<stop offset="1" stop-color="#595C6A"/>
</linearGradient>
<linearGradient id="paint2_linear" x1="23.1004" y1="9.64017" x2="62.0609" y2="72.9843" gradientUnits="userSpaceOnUse">
<stop offset="0.161458" stop-color="#FEB26C"/>
<stop offset="0.411458" stop-color="#FBB957"/>
<stop offset="0.551913" stop-color="#FFC36B"/>
<stop offset="1" stop-color="#FFBD3D"/>
</linearGradient>
<linearGradient id="paint3_linear" x1="29.2201" y1="24.7753" x2="47.6133" y2="62.6025" gradientUnits="userSpaceOnUse">
<stop offset="0.161458" stop-color="#FEB26C"/>
<stop offset="0.411458" stop-color="#FBB957"/>
<stop offset="0.551913" stop-color="#FFC36B"/>
<stop offset="1" stop-color="#FFBD3D"/>
</linearGradient>
<clipPath id="clip0">
<rect width="72.8" height="81.9" fill="white" transform="translate(5.62695 1)"/>
</clipPath>
</defs>
</svg>
