<?xml version="1.0" encoding="UTF-8"?>
<svg width="12px" height="12px" viewBox="0 0 12 12" version="1.1" xmlns="http://www.w3.org/2000/svg" xmlns:xlink="http://www.w3.org/1999/xlink">
    <title>plus 1_12*12_pic</title>
    <defs>
        <linearGradient x1="9.08422663%" y1="31.9198614%" x2="89.4475029%" y2="74.5%" id="linearGradient-1">
            <stop stop-color="#FFE8BE" offset="0%"></stop>
            <stop stop-color="#FFDDA0" offset="100%"></stop>
        </linearGradient>
        <linearGradient x1="27.3962402%" y1="29.0120068%" x2="87.3657227%" y2="70.412089%" id="linearGradient-2">
            <stop stop-color="#FFDFB4" offset="0%"></stop>
            <stop stop-color="#FFC979" offset="100%"></stop>
        </linearGradient>
        <linearGradient x1="45.2296332%" y1="26.6420909%" x2="89.3062876%" y2="88.0843977%" id="linearGradient-3">
            <stop stop-color="#FFFFFF" offset="0%"></stop>
            <stop stop-color="#FFF7EC" offset="100%"></stop>
        </linearGradient>
    </defs>
    <g id="Plus" stroke="none" stroke-width="1" fill="none" fill-rule="evenodd">
        <g id="会员标识+标签" transform="translate(-101.000000, -139.000000)">
            <g id="avatar/premium-copy" transform="translate(87.000000, 125.000000)">
                <g id="plus-1_12*12_pic" transform="translate(14.000000, 14.000000)">
                    <circle id="Oval" fill="#FDA41F" cx="6" cy="6" r="6"></circle>
                    <path d="M6,0 C9.3137085,0 12,2.6862915 12,6 C12,9.3137085 9.3137085,12 6,12 C2.6862915,12 0,9.3137085 0,6 C0,2.6862915 2.6862915,0 6,0 Z M6,1 C3.23857625,1 1,3.23857625 1,6 C1,8.76142375 3.23857625,11 6,11 C8.76142375,11 11,8.76142375 11,6 C11,3.23857625 8.76142375,1 6,1 Z" id="Oval" fill="#FFFFFF" fill-rule="nonzero"></path>
                    <g id="Group" transform="translate(2.756348, 3.000244)">
                        <path d="M0.580092115,1.51105987 L3.24,3.24 L3.24,3.24 L5.89990789,1.51105987 C6.0499392,1.41353952 6.25061949,1.45610806 6.34813984,1.60613938 C6.38945517,1.66970142 6.40717398,1.74573858 6.39821231,1.82101658 L6.00802358,5.09860195 C5.96922015,5.42455073 5.69281755,5.67 5.36456718,5.67 L1.11543282,5.67 C0.787182449,5.67 0.510779848,5.42455073 0.471976423,5.09860195 L0.0817876884,1.82101658 C0.0606346433,1.643331 0.187529334,1.48214045 0.365214913,1.46098741 C0.440492912,1.45202574 0.516530077,1.46974455 0.580092115,1.51105987 Z" id="矩形" fill="url(#linearGradient-1)"></path>
                        <path d="M6.34813984,1.60613938 C6.38945517,1.66970142 6.40717398,1.74573858 6.39821231,1.82101658 L6.00802358,5.09860195 C5.96922015,5.42455073 5.69281755,5.67 5.36456718,5.67 L1.11543282,5.67 C0.787182449,5.67 0.510779848,5.42455073 0.471976423,5.09860195 L0.0817876884,1.82101658 C0.0606346433,1.643331 0.187529334,1.48214045 0.365214913,1.46098741 C0.440492912,1.45202574 0.516530077,1.46974455 0.580092115,1.51105987 L3.24,3.24 L5.89990789,1.51105987 C6.0499392,1.41353952 6.25061949,1.45610806 6.34813984,1.60613938 Z M5.856,2.135 L3.24,3.83634302 L0.623,2.135 L0.96847056,5.03949551 C0.975560569,5.09905158 1.01738112,5.14684081 1.07221078,5.16357426 L1.11543282,5.17 L5.36456718,5.17 C5.42454379,5.17 5.47694166,5.13412198 5.50003935,5.08165489 L5.51152944,5.03949551 L5.856,2.135 Z" id="矩形" fill="url(#linearGradient-2)" fill-rule="nonzero"></path>
                        <path d="M3.52131078,0.492293862 L5.92600112,4.70050197 C6.10355958,5.01122927 5.99560491,5.4070631 5.6848776,5.58462156 C5.58696629,5.64057087 5.47614902,5.67 5.36337957,5.67 L1.11662043,5.67 C0.758739914,5.67 0.468620432,5.37988052 0.468620432,5.022 C0.468620432,4.90923054 0.498049557,4.79841327 0.553998875,4.70050197 L2.95868922,0.492293862 C3.04746845,0.336930209 3.24538536,0.282952869 3.40074902,0.3717321 C3.45097915,0.400435033 3.49260784,0.442063728 3.52131078,0.492293862 Z" id="三角形" fill="url(#linearGradient-3)"></path>
                        <path d="M3.40074902,0.3717321 C3.45097915,0.400435033 3.49260784,0.442063728 3.52131078,0.492293862 L5.92600112,4.70050197 C6.10355958,5.01122927 5.99560491,5.4070631 5.6848776,5.58462156 C5.58696629,5.64057087 5.47614902,5.67 5.36337957,5.67 L1.11662043,5.67 C0.758739914,5.67 0.468620432,5.37988052 0.468620432,5.022 C0.468620432,4.90923054 0.498049557,4.79841327 0.553998875,4.70050197 L2.95868922,0.492293862 C3.04746845,0.336930209 3.24538536,0.282952869 3.40074902,0.3717321 Z M3.24,1.007 L0.988120447,4.94857144 C0.975341899,4.9709339 0.968620432,4.99624401 0.968620432,5.022 C0.968620432,5.08739051 1.01102802,5.14287621 1.06984098,5.16245486 L1.11662043,5.17 L5.36337957,5.17 C5.38913556,5.17 5.41444567,5.16327853 5.43680813,5.15049999 C5.493583,5.1180572 5.52071801,5.05370849 5.50853764,4.99293081 L5.49187955,4.94857144 L3.24,1.007 Z" id="三角形" fill="#FFF6E9" fill-rule="nonzero"></path>
                    </g>
                </g>
            </g>
        </g>
    </g>
</svg>